<svg xmlns="http://www.w3.org/2000/svg" viewBox="0 0 750 500"><g id="freepik--Floor--inject-2"><path d="M708.7,445.21c0,.14-149.41.26-333.68.26s-333.72-.12-333.72-.26S190.68,445,375,445,708.7,445.07,708.7,445.21Z" style="fill:#263238"></path></g><g id="freepik--side-table--inject-2"><path d="M658.82,318c-.1-2-1.25-25-1.5-29.93,0-.6-.05-.93-.05-.93s-7.31-3.76-15.1-3.14h0a28.27,28.27,0,0,0-10.39,3.74v30.91a10.79,10.79,0,0,0,10.5,9.74h2.8v.05l3.75-.18A10.78,10.78,0,0,0,658.82,318Z" style="fill:#e0e0e0"></path><path d="M658.82,318a5.3,5.3,0,0,1-.08,1.35,10.77,10.77,0,0,1-1.32,3.62,11.29,11.29,0,0,1-1.7,2.23,11,11,0,0,1-2.7,1.94,12.46,12.46,0,0,1-3.66,1.15l-.51.09-.51,0-1.06.05-2.19.12H645v-.18l.13.12a24.12,24.12,0,0,1-4.44-.2,11.43,11.43,0,0,1-4.46-1.81,11.13,11.13,0,0,1-3.39-3.86,11.41,11.41,0,0,1-1-2.52,6.39,6.39,0,0,1-.21-1.38c0-.46,0-.92,0-1.39,0-7.4,0-15.51,0-24v-5.7l.08-.05a30.44,30.44,0,0,1,5.13-2.45,23.7,23.7,0,0,1,5.34-1.32L642,284h0v-.18h.18a27.26,27.26,0,0,1,8.08.7,33.78,33.78,0,0,1,7.1,2.48l.09,0v.09c.44,9.26.8,17,1.06,22.39.11,2.69.2,4.8.27,6.27,0,.7,0,1.26.06,1.65V318s0,0,0-.14l0-.42c0-.39-.07-.94-.11-1.65-.09-1.46-.21-3.58-.36-6.26-.29-5.42-.7-13.13-1.19-22.38l.09.13a34.33,34.33,0,0,0-7-2.43,27.25,27.25,0,0,0-8-.67l.16-.19h0v.17l-.17,0a27.32,27.32,0,0,0-10.31,3.72l.09-.15v5.59c0,8.51,0,16.62,0,24v1.38a6.47,6.47,0,0,0,.19,1.31,11.47,11.47,0,0,0,.93,2.45,10.89,10.89,0,0,0,3.28,3.76,11.2,11.2,0,0,0,4.34,1.78,24.13,24.13,0,0,0,4.38.22h.12v.17l-.14-.12,2.18-.1,1.06-.05.51,0,.5-.08a12,12,0,0,0,3.59-1.1,10.91,10.91,0,0,0,2.68-1.88,12.28,12.28,0,0,0,1.7-2.17,11.48,11.48,0,0,0,1.37-3.57,7.49,7.49,0,0,0,.13-1A2.3,2.3,0,0,1,658.82,318Z" style="fill:#263238"></path><path d="M658.82,318l-.28-4.81-26.76.24v5.22a10.79,10.79,0,0,0,10.5,9.74l2.8.05,3.74-.18A10.79,10.79,0,0,0,658.82,318Z" style="fill:#263238"></path><path d="M648.78,294.47s0-.31-.18-.84a3.49,3.49,0,0,0-1.27-1.82,3.32,3.32,0,1,0,0,5.31,3.49,3.49,0,0,0,1.27-1.82c.15-.53.14-.84.18-.83s0,.07,0,.22a2.91,2.91,0,0,1-.07.64,3.43,3.43,0,0,1-1.25,2,3.59,3.59,0,0,1-3.43.56,3.63,3.63,0,0,1,0-6.85,3.59,3.59,0,0,1,3.43.56,3.43,3.43,0,0,1,1.25,2,2.91,2.91,0,0,1,.07.64A.72.72,0,0,1,648.78,294.47Z" style="fill:#263238"></path><path d="M644.87,293.28c0,.05-.37.21-.56.74a1.18,1.18,0,0,0,.11.92,1.09,1.09,0,0,0,.93.53,1.11,1.11,0,0,0,.94-.54,1.21,1.21,0,0,0,.09-.92c-.19-.53-.6-.68-.56-.74s.48,0,.8.64a1.37,1.37,0,0,1-1.27,1.93,1.38,1.38,0,0,1-1.23-.74,1.35,1.35,0,0,1,0-1.17C644.38,293.29,644.88,293.24,644.87,293.28Z" style="fill:#263238"></path><path d="M645.3,292.76c.1,0,.19.38.19.84s-.09.84-.19.84-.18-.37-.18-.84S645.2,292.76,645.3,292.76Z" style="fill:#263238"></path><path d="M645.87,302.22a.47.47,0,0,1-.93,0,.47.47,0,0,1,.93,0Z" style="fill:#fff"></path><path d="M634.21,315.79a.22.22,0,1,1-.22-.22A.22.22,0,0,1,634.21,315.79Z" style="fill:#455a64"></path><path d="M634.21,317a.22.22,0,1,1-.22-.22A.22.22,0,0,1,634.21,317Z" style="fill:#455a64"></path><path d="M635.72,315.79a.22.22,0,1,1-.22-.22A.22.22,0,0,1,635.72,315.79Z" style="fill:#455a64"></path><path d="M635.72,317a.22.22,0,1,1-.22-.22A.22.22,0,0,1,635.72,317Z" style="fill:#455a64"></path><path d="M637.23,315.79a.22.22,0,1,1-.22-.22A.22.22,0,0,1,637.23,315.79Z" style="fill:#455a64"></path><path d="M637.23,317a.22.22,0,1,1-.22-.22A.22.22,0,0,1,637.23,317Z" style="fill:#455a64"></path><path d="M638.73,315.79a.22.22,0,1,1-.21-.22A.21.21,0,0,1,638.73,315.79Z" style="fill:#455a64"></path><path d="M638.73,317a.22.22,0,1,1-.21-.22A.21.21,0,0,1,638.73,317Z" style="fill:#455a64"></path><circle cx="640.02" cy="315.79" r="0.22" style="fill:#455a64"></circle><path d="M640.24,317a.22.22,0,0,1-.22.22.22.22,0,0,1,0-.44A.22.22,0,0,1,640.24,317Z" style="fill:#455a64"></path><path d="M641.75,315.79a.22.22,0,1,1-.22-.22A.22.22,0,0,1,641.75,315.79Z" style="fill:#455a64"></path><path d="M641.75,317a.22.22,0,1,1-.22-.22A.22.22,0,0,1,641.75,317Z" style="fill:#455a64"></path><path d="M643.26,315.79a.22.22,0,1,1-.22-.22A.22.22,0,0,1,643.26,315.79Z" style="fill:#455a64"></path><path d="M643.26,317a.22.22,0,1,1-.22-.22A.22.22,0,0,1,643.26,317Z" style="fill:#455a64"></path><circle cx="644.55" cy="315.79" r="0.22" style="fill:#455a64"></circle><path d="M644.77,317a.22.22,0,1,1-.22-.22A.22.22,0,0,1,644.77,317Z" style="fill:#455a64"></path><path d="M646.27,315.79a.21.21,0,0,1-.21.22.22.22,0,1,1,0-.44A.21.21,0,0,1,646.27,315.79Z" style="fill:#455a64"></path><path d="M646.27,317a.21.21,0,0,1-.21.22.22.22,0,0,1,0-.44A.21.21,0,0,1,646.27,317Z" style="fill:#455a64"></path><circle cx="647.56" cy="315.79" r="0.22" style="fill:#455a64"></circle><path d="M647.78,317a.22.22,0,1,1-.22-.22A.22.22,0,0,1,647.78,317Z" style="fill:#455a64"></path><circle cx="649.07" cy="315.79" r="0.22" style="fill:#455a64"></circle><path d="M649.29,317a.22.22,0,1,1-.22-.22A.22.22,0,0,1,649.29,317Z" style="fill:#455a64"></path><path d="M650.8,315.79a.22.22,0,1,1-.22-.22A.22.22,0,0,1,650.8,315.79Z" style="fill:#455a64"></path><path d="M650.8,317a.22.22,0,1,1-.22-.22A.22.22,0,0,1,650.8,317Z" style="fill:#455a64"></path><path d="M652.31,315.79a.22.22,0,1,1-.22-.22A.22.22,0,0,1,652.31,315.79Z" style="fill:#455a64"></path><path d="M652.31,317a.22.22,0,1,1-.22-.22A.22.22,0,0,1,652.31,317Z" style="fill:#455a64"></path><path d="M653.82,315.79a.22.22,0,1,1-.22-.22A.22.22,0,0,1,653.82,315.79Z" style="fill:#455a64"></path><path d="M653.82,317a.22.22,0,1,1-.22-.22A.22.22,0,0,1,653.82,317Z" style="fill:#455a64"></path><path d="M655.32,315.79a.22.22,0,1,1-.22-.22A.22.22,0,0,1,655.32,315.79Z" style="fill:#455a64"></path><path d="M655.32,317a.22.22,0,1,1-.22-.22A.22.22,0,0,1,655.32,317Z" style="fill:#455a64"></path><path d="M656.83,315.79a.22.22,0,1,1-.22-.22A.22.22,0,0,1,656.83,315.79Z" style="fill:#455a64"></path><path d="M656.83,317a.22.22,0,1,1-.22-.22A.22.22,0,0,1,656.83,317Z" style="fill:#455a64"></path><path d="M634.21,318.32a.22.22,0,1,1-.22-.22A.22.22,0,0,1,634.21,318.32Z" style="fill:#455a64"></path><path d="M634.21,319.55a.22.22,0,1,1-.22-.22A.22.22,0,0,1,634.21,319.55Z" style="fill:#455a64"></path><path d="M635.72,318.32a.22.22,0,1,1-.22-.22A.22.22,0,0,1,635.72,318.32Z" style="fill:#455a64"></path><path d="M635.72,319.55a.22.22,0,1,1-.22-.22A.22.22,0,0,1,635.72,319.55Z" style="fill:#455a64"></path><path d="M637.23,318.32a.22.22,0,1,1-.22-.22A.22.22,0,0,1,637.23,318.32Z" style="fill:#455a64"></path><path d="M637.23,319.55a.22.22,0,1,1-.22-.22A.22.22,0,0,1,637.23,319.55Z" style="fill:#455a64"></path><path d="M638.73,318.32a.22.22,0,1,1-.21-.22A.21.21,0,0,1,638.73,318.32Z" style="fill:#455a64"></path><path d="M638.73,319.55a.22.22,0,1,1-.21-.22A.21.21,0,0,1,638.73,319.55Z" style="fill:#455a64"></path><circle cx="640.02" cy="318.32" r="0.22" style="fill:#455a64"></circle><circle cx="640.02" cy="319.55" r="0.22" style="fill:#455a64"></circle><path d="M641.75,318.32a.22.22,0,1,1-.22-.22A.22.22,0,0,1,641.75,318.32Z" style="fill:#455a64"></path><path d="M641.75,319.55a.22.22,0,1,1-.22-.22A.22.22,0,0,1,641.75,319.55Z" style="fill:#455a64"></path><path d="M643.26,318.32a.22.22,0,1,1-.22-.22A.22.22,0,0,1,643.26,318.32Z" style="fill:#455a64"></path><path d="M643.26,319.55a.22.22,0,1,1-.22-.22A.22.22,0,0,1,643.26,319.55Z" style="fill:#455a64"></path><circle cx="644.55" cy="318.32" r="0.22" style="fill:#455a64"></circle><circle cx="644.55" cy="319.55" r="0.22" style="fill:#455a64"></circle><path d="M646.27,318.32a.21.21,0,0,1-.21.22.22.22,0,0,1,0-.44A.21.21,0,0,1,646.27,318.32Z" style="fill:#455a64"></path><path d="M646.27,319.55a.21.21,0,0,1-.21.22.22.22,0,1,1,0-.44A.21.21,0,0,1,646.27,319.55Z" style="fill:#455a64"></path><circle cx="647.56" cy="318.32" r="0.22" style="fill:#455a64"></circle><circle cx="647.56" cy="319.55" r="0.22" style="fill:#455a64"></circle><circle cx="649.07" cy="318.32" r="0.22" style="fill:#455a64"></circle><circle cx="649.07" cy="319.55" r="0.22" style="fill:#455a64"></circle><path d="M650.8,318.32a.22.22,0,1,1-.22-.22A.22.22,0,0,1,650.8,318.32Z" style="fill:#455a64"></path><path d="M650.8,319.55a.22.22,0,1,1-.22-.22A.22.22,0,0,1,650.8,319.55Z" style="fill:#455a64"></path><path d="M652.31,318.32a.22.22,0,1,1-.22-.22A.22.22,0,0,1,652.31,318.32Z" style="fill:#455a64"></path><path d="M652.31,319.55a.22.22,0,1,1-.22-.22A.22.22,0,0,1,652.31,319.55Z" style="fill:#455a64"></path><path d="M653.82,318.32a.22.22,0,1,1-.22-.22A.22.22,0,0,1,653.82,318.32Z" style="fill:#455a64"></path><path d="M653.82,319.55a.22.22,0,1,1-.22-.22A.22.22,0,0,1,653.82,319.55Z" style="fill:#455a64"></path><path d="M655.32,318.32a.22.22,0,1,1-.22-.22A.22.22,0,0,1,655.32,318.32Z" style="fill:#455a64"></path><path d="M655.32,319.55a.22.22,0,1,1-.22-.22A.22.22,0,0,1,655.32,319.55Z" style="fill:#455a64"></path><path d="M656.83,318.32a.22.22,0,1,1-.22-.22A.22.22,0,0,1,656.83,318.32Z" style="fill:#455a64"></path><path d="M656.83,319.55a.22.22,0,1,1-.22-.22A.22.22,0,0,1,656.83,319.55Z" style="fill:#455a64"></path><path d="M634.21,320.75a.22.22,0,1,1-.22-.22A.22.22,0,0,1,634.21,320.75Z" style="fill:#455a64"></path><path d="M635.72,320.75a.22.22,0,1,1-.22-.22A.22.22,0,0,1,635.72,320.75Z" style="fill:#455a64"></path><path d="M635.72,322a.22.22,0,1,1-.44,0,.22.22,0,0,1,.44,0Z" style="fill:#455a64"></path><path d="M637.23,320.75a.22.22,0,1,1-.22-.22A.22.22,0,0,1,637.23,320.75Z" style="fill:#455a64"></path><path d="M637.23,322a.22.22,0,1,1-.44,0,.22.22,0,0,1,.44,0Z" style="fill:#455a64"></path><path d="M638.73,320.75a.22.22,0,1,1-.21-.22A.21.21,0,0,1,638.73,320.75Z" style="fill:#455a64"></path><path d="M638.73,322a.22.22,0,1,1-.43,0,.21.21,0,0,1,.22-.21A.21.21,0,0,1,638.73,322Z" style="fill:#455a64"></path><path d="M640.24,320.75a.22.22,0,0,1-.22.22.22.22,0,0,1,0-.44A.22.22,0,0,1,640.24,320.75Z" style="fill:#455a64"></path><path d="M640.24,322a.22.22,0,0,1-.22.22.21.21,0,0,1-.21-.22.21.21,0,0,1,.21-.21A.21.21,0,0,1,640.24,322Z" style="fill:#455a64"></path><path d="M641.75,320.75a.22.22,0,1,1-.22-.22A.22.22,0,0,1,641.75,320.75Z" style="fill:#455a64"></path><path d="M641.75,322a.22.22,0,1,1-.44,0,.22.22,0,0,1,.44,0Z" style="fill:#455a64"></path><path d="M643.26,320.75a.22.22,0,1,1-.22-.22A.22.22,0,0,1,643.26,320.75Z" style="fill:#455a64"></path><path d="M643.26,322a.22.22,0,0,1-.44,0,.22.22,0,0,1,.44,0Z" style="fill:#455a64"></path><path d="M644.77,320.75a.22.22,0,1,1-.22-.22A.22.22,0,0,1,644.77,320.75Z" style="fill:#455a64"></path><path d="M644.77,322a.22.22,0,0,1-.44,0,.22.22,0,0,1,.44,0Z" style="fill:#455a64"></path><path d="M646.27,320.75a.21.21,0,0,1-.21.22.22.22,0,0,1,0-.44A.21.21,0,0,1,646.27,320.75Z" style="fill:#455a64"></path><path d="M646.27,322a.21.21,0,0,1-.21.22.22.22,0,0,1-.22-.22.21.21,0,0,1,.22-.21A.21.21,0,0,1,646.27,322Z" style="fill:#455a64"></path><path d="M647.78,320.75a.22.22,0,1,1-.22-.22A.22.22,0,0,1,647.78,320.75Z" style="fill:#455a64"></path><path d="M647.78,322a.22.22,0,1,1-.43,0,.21.21,0,0,1,.21-.21A.21.21,0,0,1,647.78,322Z" style="fill:#455a64"></path><path d="M649.29,320.75a.22.22,0,1,1-.22-.22A.22.22,0,0,1,649.29,320.75Z" style="fill:#455a64"></path><path d="M649.29,322a.22.22,0,1,1-.44,0,.22.22,0,0,1,.44,0Z" style="fill:#455a64"></path><path d="M650.8,320.75a.22.22,0,1,1-.22-.22A.22.22,0,0,1,650.8,320.75Z" style="fill:#455a64"></path><path d="M650.8,322a.22.22,0,1,1-.44,0,.22.22,0,0,1,.44,0Z" style="fill:#455a64"></path><path d="M652.31,320.75a.22.22,0,1,1-.22-.22A.22.22,0,0,1,652.31,320.75Z" style="fill:#455a64"></path><path d="M652.31,322a.22.22,0,1,1-.44,0,.22.22,0,0,1,.44,0Z" style="fill:#455a64"></path><path d="M653.82,320.75a.22.22,0,1,1-.22-.22A.22.22,0,0,1,653.82,320.75Z" style="fill:#455a64"></path><path d="M653.82,322a.22.22,0,1,1-.44,0,.22.22,0,0,1,.44,0Z" style="fill:#455a64"></path><path d="M655.32,320.75a.22.22,0,1,1-.22-.22A.22.22,0,0,1,655.32,320.75Z" style="fill:#455a64"></path><path d="M655.32,322a.22.22,0,1,1-.43,0,.21.21,0,0,1,.21-.21A.21.21,0,0,1,655.32,322Z" style="fill:#455a64"></path><path d="M656.83,320.75a.22.22,0,1,1-.22-.22A.22.22,0,0,1,656.83,320.75Z" style="fill:#455a64"></path><path d="M635.72,323.16a.22.22,0,1,1-.22-.22A.22.22,0,0,1,635.72,323.16Z" style="fill:#455a64"></path><path d="M637.23,323.16a.22.22,0,1,1-.22-.22A.22.22,0,0,1,637.23,323.16Z" style="fill:#455a64"></path><path d="M637.23,324.4a.22.22,0,0,1-.44,0,.22.22,0,0,1,.44,0Z" style="fill:#455a64"></path><path d="M638.73,323.16a.22.22,0,1,1-.21-.22A.21.21,0,0,1,638.73,323.16Z" style="fill:#455a64"></path><path d="M638.73,324.4a.21.21,0,0,1-.21.21.21.21,0,0,1-.22-.21.22.22,0,1,1,.43,0Z" style="fill:#455a64"></path><circle cx="640.02" cy="323.16" r="0.22" style="fill:#455a64"></circle><path d="M640.24,324.4a.21.21,0,0,1-.22.21.21.21,0,0,1-.21-.21.21.21,0,0,1,.21-.22A.22.22,0,0,1,640.24,324.4Z" style="fill:#455a64"></path><path d="M641.75,323.16a.22.22,0,1,1-.22-.22A.22.22,0,0,1,641.75,323.16Z" style="fill:#455a64"></path><path d="M641.75,324.4a.22.22,0,0,1-.44,0,.22.22,0,0,1,.44,0Z" style="fill:#455a64"></path><path d="M643.26,323.16a.22.22,0,1,1-.22-.22A.22.22,0,0,1,643.26,323.16Z" style="fill:#455a64"></path><path d="M643.26,324.4a.22.22,0,0,1-.44,0,.22.22,0,0,1,.44,0Z" style="fill:#455a64"></path><circle cx="644.55" cy="323.16" r="0.22" style="fill:#455a64"></circle><path d="M644.77,324.4a.22.22,0,0,1-.44,0,.22.22,0,0,1,.44,0Z" style="fill:#455a64"></path><path d="M646.27,323.16a.21.21,0,0,1-.21.22.22.22,0,1,1,0-.44A.21.21,0,0,1,646.27,323.16Z" style="fill:#455a64"></path><path d="M646.27,324.4a.21.21,0,0,1-.21.21.21.21,0,0,1-.22-.21.22.22,0,0,1,.22-.22A.21.21,0,0,1,646.27,324.4Z" style="fill:#455a64"></path><circle cx="647.56" cy="323.16" r="0.22" style="fill:#455a64"></circle><path d="M647.78,324.4a.21.21,0,0,1-.22.21.21.21,0,0,1-.21-.21.22.22,0,1,1,.43,0Z" style="fill:#455a64"></path><circle cx="649.07" cy="323.16" r="0.22" style="fill:#455a64"></circle><path d="M649.29,324.4a.22.22,0,0,1-.44,0,.22.22,0,1,1,.44,0Z" style="fill:#455a64"></path><path d="M650.8,323.16a.22.22,0,1,1-.22-.22A.22.22,0,0,1,650.8,323.16Z" style="fill:#455a64"></path><path d="M650.8,324.4a.22.22,0,0,1-.44,0,.22.22,0,1,1,.44,0Z" style="fill:#455a64"></path><path d="M652.31,323.16a.22.22,0,1,1-.22-.22A.22.22,0,0,1,652.31,323.16Z" style="fill:#455a64"></path><path d="M652.31,324.4a.22.22,0,0,1-.44,0,.22.22,0,1,1,.44,0Z" style="fill:#455a64"></path><path d="M653.82,323.16a.22.22,0,1,1-.22-.22A.22.22,0,0,1,653.82,323.16Z" style="fill:#455a64"></path><path d="M653.82,324.4a.22.22,0,0,1-.44,0,.22.22,0,0,1,.44,0Z" style="fill:#455a64"></path><path d="M655.32,323.16a.22.22,0,1,1-.22-.22A.22.22,0,0,1,655.32,323.16Z" style="fill:#455a64"></path><path d="M661,267.6a1.57,1.57,0,0,1-.32-.26l-.86-.81a14.65,14.65,0,0,0-1.4-1.23l-.91-.72-.5-.4-.56-.36a21,21,0,0,0-2.57-1.53c-.48-.23-1-.52-1.49-.72l-1.64-.63a22.55,22.55,0,0,0-15.37.22c-.56.22-1.12.41-1.64.64l-1.49.75-.7.36-.65.4-1.21.76a30,30,0,0,0-3.4,2.69l-.88.78a1.76,1.76,0,0,1-.33.26,1.33,1.33,0,0,1,.27-.31l.84-.84a26.15,26.15,0,0,1,3.35-2.79l1.21-.79.65-.42c.23-.13.47-.25.71-.37l1.5-.78c.52-.23,1.09-.43,1.65-.66a22.91,22.91,0,0,1,7.78-1.51,23.57,23.57,0,0,1,7.82,1.28l1.66.66c.54.21,1,.51,1.51.75a21.05,21.05,0,0,1,2.57,1.58l.56.38.49.41.9.75a12.67,12.67,0,0,1,1.37,1.29l.81.86A2.13,2.13,0,0,1,661,267.6Z" style="fill:#263238"></path><path d="M655.94,274.59a22.18,22.18,0,0,0-3.34-2.7c-.28-.17-.57-.36-.89-.53l-1-.48-.54-.25-.57-.2c-.4-.13-.79-.29-1.21-.41a21.08,21.08,0,0,0-5.62-.77,19.66,19.66,0,0,0-5.61.84l-1.22.4c-.39.14-.74.33-1.1.48a16.55,16.55,0,0,0-3.37,2,7.6,7.6,0,0,0-1,.88,6.66,6.66,0,0,1-.87.77,7.58,7.58,0,0,1,.77-.87,6.64,6.64,0,0,1,1-.94,10.72,10.72,0,0,1,1.45-1.08,12.75,12.75,0,0,1,1.92-1.08c.36-.16.72-.36,1.12-.5l1.23-.43a19.57,19.57,0,0,1,5.7-.88,20.52,20.52,0,0,1,5.72.81c.43.12.83.29,1.23.43l.59.22.54.26,1,.51c.32.17.61.38.89.56s.56.34.8.53l.66.55.56.48c.17.17.3.33.43.46A6.57,6.57,0,0,1,655.94,274.59Z" style="fill:#263238"></path><path d="M650.37,281.25a21.32,21.32,0,0,0-2-1.42,12.26,12.26,0,0,0-5.69-1.48,10.94,10.94,0,0,0-5.7,1.38c-1.31.77-1.94,1.51-2,1.45s.13-.2.43-.52a3.9,3.9,0,0,1,.58-.54,7,7,0,0,1,.85-.62,10.63,10.63,0,0,1,5.85-1.53,11.79,11.79,0,0,1,5.82,1.63l.47.3.39.31a4.7,4.7,0,0,1,.59.52C650.24,281.05,650.39,281.23,650.37,281.25Z" style="fill:#263238"></path><rect x="590.76" y="393.45" width="11.29" height="52.2" style="fill:#455a64"></rect><rect x="686.65" y="393.45" width="11.29" height="52.2" style="fill:#455a64"></rect><rect x="572.09" y="326.5" width="142.36" height="13.17" style="fill:#455a64"></rect><polygon points="708.78 394.12 580.76 394.39 580.76 339.67 708.78 339.67 708.78 394.12" style="fill:#455a64"></polygon><path d="M714.45,339.67c0,.14-31.87.25-71.17.25s-71.19-.11-71.19-.25,31.87-.26,71.19-.26S714.45,339.52,714.45,339.67Z" style="fill:#263238"></path><path d="M708.31,394.39c0,.14-28.45.26-63.54.26s-63.54-.12-63.54-.26,28.44-.25,63.54-.25S708.31,394.25,708.31,394.39Z" style="fill:#263238"></path><path d="M698.23,383.3s0-.21,0-.62,0-1,0-1.82c0-1.61,0-4,0-7,0-6.09,0-15-.09-26.06l.17.17-106.91.09h0l.26-.26c0,12.34,0,24.31,0,35.51l-.25-.24,76.47.11,22.35.07,6,0,1.56,0h.54l-.51,0-1.53,0-6,0-22.29.07-76.64.11h-.24v-.25c0-11.2,0-23.17,0-35.51v-.26h.26l106.91.09h.17v.17c0,11.15-.07,20-.09,26.16,0,3,0,5.37,0,7,0,.78,0,1.37,0,1.79S698.23,383.3,698.23,383.3Z" style="fill:#263238"></path><path d="M595.55,378.64a17.31,17.31,0,0,1-4.09,4.39,9,9,0,0,1,1.86-2.37A9.32,9.32,0,0,1,595.55,378.64Z" style="fill:#263238"></path><path d="M595.55,352.45a10.18,10.18,0,0,1-2.31-2.15,9.75,9.75,0,0,1-1.92-2.5,10,10,0,0,1,2.3,2.15A9.57,9.57,0,0,1,595.55,352.45Z" style="fill:#263238"></path><path d="M698.42,347.9a9.4,9.4,0,0,1-2.33,2.47,14.91,14.91,0,0,1-2.67,2.08,9.4,9.4,0,0,1,2.33-2.47A14.37,14.37,0,0,1,698.42,347.9Z" style="fill:#263238"></path><path d="M698.23,383.31a11.23,11.23,0,0,1-2.58-2.15,10.84,10.84,0,0,1-2.22-2.51,11.58,11.58,0,0,1,2.58,2.14A11.06,11.06,0,0,1,698.23,383.31Z" style="fill:#263238"></path><path d="M693.42,378.65s0-.16,0-.46,0-.76,0-1.34c0-1.18,0-2.9,0-5.14,0-4.48-.05-11-.08-19.26l.15.15-97.86.1h0l.26-.25c0,9,0,17.78,0,26.2l-.25-.25,69.84.11,20.55.07,5.54,0,1.44,0,.5,0H693l-1.41,0-5.49,0-20.5.07-70,.12h-.25v-.25c0-8.42,0-17.2,0-26.2v-.26h.27l97.86.1h.16v.16c0,8.29-.07,14.85-.09,19.36,0,2.22,0,3.93,0,5.1,0,.56,0,1,0,1.31S693.42,378.65,693.42,378.65Z" style="fill:#263238"></path><path d="M654.18,363.1a10.7,10.7,0,0,0-2.62-1.19,8.5,8.5,0,0,0-2.6-.4h-7.21a8.24,8.24,0,0,0-5.73,2.22,4.37,4.37,0,0,0-.86,1,3,3,0,0,0,.28,3.53c.92.86,2.81.44,3-.82a3.13,3.13,0,0,0,3.32,2.95,4.22,4.22,0,0,0,3.54-3.08,2.81,2.81,0,0,0,5.6.43c.89,1.16,2.2,2.24,3.72,1.75a2.66,2.66,0,0,0,1.72-1.93A4.32,4.32,0,0,0,654.18,363.1Z" style="fill:#e0e0e0"></path><path d="M643,361.47a14.43,14.43,0,0,0-3,2.71,15,15,0,0,0-1.67,3.65c-.06,0-.11-.48,0-1.23a7,7,0,0,1,1.21-2.72,7.2,7.2,0,0,1,2.22-2A2.36,2.36,0,0,1,643,361.47Z" style="fill:#263238"></path><path d="M645.8,361.77a16.32,16.32,0,0,1-.6,5.68,8.15,8.15,0,0,1,0-2.87A8,8,0,0,1,645.8,361.77Z" style="fill:#263238"></path><path d="M649.27,361.69c0-.05.41.1.84.57a4.5,4.5,0,0,1,1,2.22,8,8,0,0,1,0,2.4c-.08.61-.18,1-.25,1s-.1-.38-.11-1a14.29,14.29,0,0,0-.15-2.29,5.6,5.6,0,0,0-.8-2.09C649.51,362,649.23,361.75,649.27,361.69Z" style="fill:#263238"></path></g><g id="freepik--musical-notes--inject-2"><path d="M634.84,199.08a3.63,3.63,0,1,1-4-3.25A3.62,3.62,0,0,1,634.84,199.08Z" style="fill:#263238"></path><path d="M634.2,197.93c-.17.15-2.82-2.6-5.41-6.5s-4.62-7-4.46-7.15,2.56,2.83,5.12,6.7S634.36,197.78,634.2,197.93Z" style="fill:#263238"></path><path d="M630.58,179.62c.2,0-.38,2-2.27,3.51s-3.93,1.66-3.93,1.45,1.73-.69,3.43-2.07S630.36,179.52,630.58,179.62Z" style="fill:#263238"></path><path d="M632.49,182.86c.21,0-.28,2-2.23,3.34s-4,1.12-3.92.91,1.76-.36,3.46-1.57S632.28,182.77,632.49,182.86Z" style="fill:#263238"></path><path d="M639.09,163.18a4.39,4.39,0,1,1,2.4-5.73A4.39,4.39,0,0,1,639.09,163.18Z" style="fill:#263238"></path><path d="M640.2,162c-.36-.21,1.83-4.32,5.47-8.67s6.65-7.69,7-7.46-2.19,4.12-5.81,8.42S640.56,162.25,640.2,162Z" style="fill:#263238"></path><path d="M661.65,156.91c-.09.34-3.66-.49-6.76-3.67a10.22,10.22,0,0,1-2.79-4.84c-.32-1.45,0-2.37.22-2.34s.28.85.81,2a14,14,0,0,0,2.85,4.11C658.75,155.05,661.85,156.47,661.65,156.91Z" style="fill:#263238"></path><path d="M648.09,174.19a4.39,4.39,0,1,1,2.4-5.73A4.39,4.39,0,0,1,648.09,174.19Z" style="fill:#263238"></path><path d="M649.2,173c-.36-.21,1.83-4.32,5.47-8.68s6.65-7.68,7-7.45-2.19,4.12-5.81,8.42S649.56,173.26,649.2,173Z" style="fill:#263238"></path><path d="M659.84,159.3c-.06.39-3.52-.18-6.53-3.06s-3.81-6.27-3.42-6.35,1.72,2.7,4.46,5.25S660,158.87,659.84,159.3Z" style="fill:#263238"></path><path d="M629.06,237.19a3.27,3.27,0,1,1-1.65-4.32A3.27,3.27,0,0,1,629.06,237.19Z" style="fill:#263238"></path><path d="M629.07,236c-.31.08-1.24-3.27-1.51-7.48s-.36-7.57-.07-7.62.93,3.35,1.2,7.53S629.37,235.93,629.07,236Z" style="fill:#263238"></path><path d="M638,222.22c.13.23-2.22,1.61-5.53,1.5a7.73,7.73,0,0,1-4-1.19c-.92-.61-1.2-1.29-1.08-1.37s.58.32,1.47.67a10.34,10.34,0,0,0,3.65.75C635.48,222.7,637.88,221.88,638,222.22Z" style="fill:#263238"></path><path d="M639.57,238.5a3.27,3.27,0,1,1-1.65-4.32A3.27,3.27,0,0,1,639.57,238.5Z" style="fill:#263238"></path><path d="M639.58,237.31c-.3.08-1.24-3.27-1.51-7.48s-.36-7.57-.07-7.61.94,3.34,1.2,7.52S639.89,237.25,639.58,237.31Z" style="fill:#263238"></path><path d="M638.25,224.43c.17.24-2,1.72-5.09,1.72s-5.28-1.43-5.1-1.67,2.31.57,5.1.53S638.11,224.13,638.25,224.43Z" style="fill:#263238"></path><path d="M656.52,202.77a1.62,1.62,0,1,1-1.08-3.05,1.62,1.62,0,1,1,1.08,3.05Z" style="fill:#263238"></path><path d="M657,202.37a9.19,9.19,0,0,1,2.17-3.08,15.55,15.55,0,0,1,2.71-2.62c.13.11-.88,1.48-2.29,3A21.69,21.69,0,0,1,657,202.37Z" style="fill:#263238"></path><path d="M664.94,200.9a3.79,3.79,0,0,1-2.42-1.48,3.65,3.65,0,0,1-.93-1.84c-.1-.54,0-.87.12-.85s.09.32.26.76a5.25,5.25,0,0,0,1,1.56C663.91,200.16,665,200.74,664.94,200.9Z" style="fill:#263238"></path><path d="M659.62,207a1.62,1.62,0,1,1,1-2.06A1.62,1.62,0,0,1,659.62,207Z" style="fill:#263238"></path><path d="M660.05,206.6a9.07,9.07,0,0,1,2.17-3.09,15.15,15.15,0,0,1,2.72-2.61,11.21,11.21,0,0,1-2.3,3A21.74,21.74,0,0,1,660.05,206.6Z" style="fill:#263238"></path><path d="M664.22,201.74c0,.15-1.29-.13-2.34-1.25a3.24,3.24,0,0,1-1.14-2.4c.16-.05.58,1,1.54,2S664.28,201.59,664.22,201.74Z" style="fill:#263238"></path></g><g id="freepik--Character--inject-2"><path d="M233.71,201.87s42.51,24.65,51.59,30.37,22.5,8.82,28.36,14.7c4.52,4.55,27.56,21.63,35.27,23.55s9.71-26.8,9.71-26.8S323,219.44,314,214.17s-73.6-26.63-73.6-26.63Z" style="fill:#ffbe9d"></path><path d="M210.32,196.64s7.71,6.73,9.83,6.94,14.54-1.87,14.54-1.87l6.94-13.47s-11.84-9.4-14.58-10.86-19-6.44-19-6.44a1.42,1.42,0,0,0-.75,2.07s-5.43-3.44-7.14-.3a1.27,1.27,0,0,0-2,.7,3.66,3.66,0,0,0,.12,3s-2.13,2-.67,3.94S210,190,210,190l4.94,5.11s-4.37-3.34-6.08-3.3-1.44,2.05-1.44,2.05Z" style="fill:#ffbe9d"></path><path d="M213.78,186.94a85.55,85.55,0,0,1-8-5,85.87,85.87,0,0,1-7.7-5.43,86.22,86.22,0,0,1,8,5A86.44,86.44,0,0,1,213.78,186.94Z" style="fill:#eb996e"></path><path d="M216.12,182.65a14.8,14.8,0,0,1-2.35-1.33l-5.55-3.42c-2.17-1.34-4.12-2.57-5.51-3.48a13.62,13.62,0,0,1-2.2-1.58,15.3,15.3,0,0,1,2.39,1.26c1.44.84,3.43,2,5.59,3.36s4.1,2.6,5.48,3.55A13.17,13.17,0,0,1,216.12,182.65Z" style="fill:#eb996e"></path><path d="M219.73,179.18c-.08.13-2.75-1.41-6.11-3.14s-6.16-3-6.1-3.15a7.45,7.45,0,0,1,1.92.64c1.16.47,2.73,1.18,4.42,2.05s3.18,1.74,4.23,2.41A7.75,7.75,0,0,1,219.73,179.18Z" style="fill:#eb996e"></path><path d="M223.19,198.4a6.15,6.15,0,0,1-2.14-.31,17.72,17.72,0,0,1-8.8-5.45,6.89,6.89,0,0,1-1.24-1.78,31.07,31.07,0,0,0,5.5,4.72A30.24,30.24,0,0,0,223.19,198.4Z" style="fill:#eb996e"></path><path d="M324.61,243.82l-19.19-61c-12.9-1.43-25.94,5.5-33.44,16.08s-9.83,24.29-8.05,37.14c.84,6.06,2.53,12,3.12,18.08s0,12.57-3.45,17.65-9.45,8.45-11.78,14.17c-3,7.3,1.06,15.35,4.26,22.56s5.2,16.71-.53,22.12a13.08,13.08,0,0,0,10.6-5.66,12.19,12.19,0,0,1-.76,9.36c8.83,2.21,18.13-1.37,25.82-6.26a77.31,77.31,0,0,0,33.4-84.28Z" style="fill:#263238"></path><path d="M281.29,203.31l-1.56,4.92c-.09,4,1.89,11.41,4.13,13.07l51,35.84a19.41,19.41,0,0,0,11.93,3.51l4.51-.19c10.32-.43,17-11.47,12.16-20.6a6.28,6.28,0,0,0-.82-1.25,12.44,12.44,0,0,0-1-1,45,45,0,0,0-7.4-5.88c-4.36-3.45-6.16-4.84-6.12-4.81s5.62-10.47-5-21.73c-5.28-5.6-15.39-12.91-23.85-18.63a16.67,16.67,0,0,0-5.55-2.2C299.7,181.11,285.63,189.6,281.29,203.31Z" style="fill:#ffbe9d"></path><path d="M327.25,196.7a2,2,0,0,1,.41,2.71,1.87,1.87,0,0,1-2.63.52,2,2,0,0,1-.42-2.71A1.89,1.89,0,0,1,327.25,196.7Z" style="fill:#263238"></path><path d="M322.74,192.63c.06.35-1.72.86-3,2.53s-1.4,3.55-1.74,3.57c-.16,0-.37-.46-.35-1.29a5.37,5.37,0,0,1,1.14-3.05,5.16,5.16,0,0,1,2.65-1.82C322.23,192.36,322.73,192.47,322.74,192.63Z" style="fill:#263238"></path><path d="M315.32,212.59a2,2,0,0,1,.41,2.71,1.87,1.87,0,0,1-2.63.52,2,2,0,0,1-.42-2.71A1.89,1.89,0,0,1,315.32,212.59Z" style="fill:#263238"></path><path d="M310.39,209.3c.05.35-1.73.85-3,2.53s-1.4,3.54-1.74,3.56c-.16,0-.37-.45-.35-1.29a5.39,5.39,0,0,1,1.14-3,5.2,5.2,0,0,1,2.65-1.81C309.87,209,310.37,209.13,310.39,209.3Z" style="fill:#263238"></path><path d="M327.46,212.79a14.23,14.23,0,0,1,1.6-3.09c.28-.46.51-.93.28-1.22a2.76,2.76,0,0,0-1.49-.7l-4.22-1.24c-6-1.82-10.76-3.48-10.68-3.72s5,1,10.95,2.85l4.2,1.31a3.17,3.17,0,0,1,1.85,1.07,1.36,1.36,0,0,1,.08,1.19,3.31,3.31,0,0,1-.46.8A13.59,13.59,0,0,1,327.46,212.79Z" style="fill:#263238"></path><path d="M348.12,226.89a38.93,38.93,0,0,1-16.83,12.88s11.52,2.39,19.74-10.6Z" style="fill:#eb996e"></path><path d="M330.94,216.61a3.77,3.77,0,0,0-3.2,1.83,3.5,3.5,0,0,0-.45,2.69,2.22,2.22,0,0,0,1.89,1.67,2.56,2.56,0,0,0,2.24-1.77,8,8,0,0,0,.38-3.12,2.49,2.49,0,0,0-.13-.86.7.7,0,0,0-.62-.47" style="fill:#eb996e"></path><path d="M324.82,218.6c.19-.28,2,1.11,4.49.55s3.78-2.64,4-2.46,0,.7-.58,1.54a5.7,5.7,0,0,1-3.27,2.13,4.92,4.92,0,0,1-3.68-.58C325,219.27,324.71,218.72,324.82,218.6Z" style="fill:#263238"></path><path d="M304.25,205.06c.33.52-1.17,2-2.45,4.16s-2,4.14-2.57,4.09c-.28,0-.5-.64-.45-1.62a8.4,8.4,0,0,1,3.83-6.28C303.46,204.91,304.09,204.82,304.25,205.06Z" style="fill:#263238"></path><path d="M315.06,187.48c.16.59-1.13,1.44-2.21,2.81s-1.72,2.75-2.32,2.71c-.29,0-.52-.51-.49-1.29a4.9,4.9,0,0,1,1.15-2.78,5,5,0,0,1,2.51-1.67C314.46,187.07,315,187.21,315.06,187.48Z" style="fill:#263238"></path><path d="M306.79,233.52c-.9-.7-3.83-1.29-4.66-.51-2.2,2.09-5.32,6.52.69,11.22,8.22,6.42,13-3.15,12.74-3.35S309.91,235.91,306.79,233.52Z" style="fill:#ffbe9d"></path><path d="M310.49,241c-.05,0,0,.22-.09.55a1.83,1.83,0,0,1-.81,1.09c-1,.62-2.95.27-4.46-.85a6.16,6.16,0,0,1-1.74-2,2.1,2.1,0,0,1-.25-1.94.92.92,0,0,1,1.05-.53c.32.07.44.25.49.21s0-.28-.39-.48a1.19,1.19,0,0,0-.77-.08,1.37,1.37,0,0,0-.83.63,2.55,2.55,0,0,0,.11,2.49,6.19,6.19,0,0,0,1.9,2.29c1.69,1.24,3.9,1.6,5.18.68a1.94,1.94,0,0,0,.8-1.48C310.68,241.13,310.53,240.94,310.49,241Z" style="fill:#eb996e"></path><polygon points="312.56 257.91 320.2 319.12 307.45 320.84 307.45 251.31 312.56 257.91" style="fill:#455a64"></polygon><polygon points="312.56 257.91 320.2 319.12 307.45 320.84 307.45 251.31 312.56 257.91" style="opacity:0.30000000000000004"></polygon><path d="M297.35,247l-.52,92.75s.92,1.56,5.58,0,8.27,3.64,8.27,3.64l-1.45-88.14-1.78-15.74Z" style="fill:#455a64"></path><path d="M293.23,213.18s1-16.32,5.81-22.19,15.17-6.54,15.17-6.54-4.17-4.1-14.87-1.88a22.94,22.94,0,0,0-16,11.22c-3,5-3.59,14.44-3.59,14.44Z" style="fill:#455a64"></path><path d="M341.28,242.22s43.24-5.72,52.79,2.06,35.54,29.45,44.22,43.47c3.92,6.32,9.46,29.66,8.06,46.19l-51.27,1.7-3-25.34-35.48-18.24S332.17,281.36,330.7,265,341.28,242.22,341.28,242.22Z" style="fill:#ffbe9d"></path><path d="M341.28,242.22s32.11,14.17,34.27,20.09h0s3.48,8.15,2.17,13.6L364.18,296l25.11,12.9,29.88-43.6-19.73-19.86c-2.51-2.19-6.81-5.69-10-6.59A110.25,110.25,0,0,0,377.94,237c-4.28-.61-18.29-.45-18.29-.45Z" style="fill:#FF725E"></path><path d="M411.45,307.38a91.62,91.62,0,0,1-9.58,1.76,94.5,94.5,0,0,1-9.66,1.24,91,91,0,0,1,9.58-1.76A90.9,90.9,0,0,1,411.45,307.38Z" style="fill:#eb996e"></path><path d="M400.78,255c-.08,0-.58-1.08-1.64-2.74a25.14,25.14,0,0,0-11.62-9.65c-1.82-.74-3-1-3-1.12a3,3,0,0,1,.86.12,16.34,16.34,0,0,1,2.27.66,22.69,22.69,0,0,1,11.8,9.8,15.81,15.81,0,0,1,1.06,2.11C400.72,254.73,400.82,255,400.78,255Z" style="fill:#263238"></path><polygon points="412.06 258.13 381.85 305.05 389.3 308.88 419.17 265.28 412.06 258.13" style="fill:#e0e0e0"></polygon><path d="M246.38,424.65l-23,2-5.21-5.62c-2.53-2.63-4.19-.09-6.82,2.44l-32.17,30.83s1.58,4.68,4.92,3.41S215,449.16,215,449.16l23.43-1.28Z" style="fill:#fafafa"></path><path d="M246.38,424.65a2.15,2.15,0,0,1-.12.39c-.09.29-.22.68-.38,1.18l-1.53,4.59c-1.37,4.05-3.33,9.89-5.77,17.13l0,.12h-.13L215,449.39h0L197.91,454l-9.21,2.58c-1.56.45-3.12.9-4.69,1.43a3.09,3.09,0,0,1-2.6-.3,5.7,5.7,0,0,1-1.77-1.92,8.74,8.74,0,0,1-.67-1.42l-.05-.15.12-.12,24.35-23.31c3.72-3.56,7.24-6.88,10.5-10.05a4.61,4.61,0,0,1,1.49-.9,2.26,2.26,0,0,1,1.75.12,4.48,4.48,0,0,1,1.32,1l1.07,1.16,4,4.37-.14-.05,16.92-1.39,4.51-.35,1.16-.09.38,0a3.81,3.81,0,0,1-.42.05l-1.19.12-4.56.45-16.77,1.58h-.09l-.06-.07-4.06-4.34a9.57,9.57,0,0,0-2.27-2.1,1.87,1.87,0,0,0-1.45-.09,4.37,4.37,0,0,0-1.35.83c-3.2,3.15-6.74,6.51-10.44,10.08L179.4,454.5l.07-.27a7.9,7.9,0,0,0,.62,1.32,5.23,5.23,0,0,0,1.59,1.74,2.54,2.54,0,0,0,2.18.25c1.55-.53,3.14-1,4.7-1.43l9.21-2.57,17.15-4.61h0l23.44-1.22-.16.12c2.5-7.16,4.52-12.92,5.92-16.93l1.63-4.61c.18-.51.33-.91.43-1.21Z" style="fill:#263238"></path><path d="M209.24,425.91c.06-.07.72.49,1.92,1.12a12,12,0,0,0,10.23.55c1.27-.5,2-1,2-.91a5.12,5.12,0,0,1-1.87,1.27,11.09,11.09,0,0,1-10.58-.57A5.28,5.28,0,0,1,209.24,425.91Z" style="fill:#263238"></path><path d="M188.72,445.22a3.45,3.45,0,0,1,1.42.88,7.11,7.11,0,0,1,2.17,3.45,9.79,9.79,0,0,1,.22,4.05,4.38,4.38,0,0,1-.43,1.62,6.29,6.29,0,0,1,0-1.65,12.29,12.29,0,0,0-.35-3.87,8,8,0,0,0-1.91-3.32C189.18,445.67,188.67,445.29,188.72,445.22Z" style="fill:#263238"></path><path d="M392.56,323.62l1.66,8.14-7.85,7.17s-20.17,11.43-17.62,35.58L340.6,407.16s-45.06,6.38-57.09,8.24c-10,1.55-49,10.51-49,10.51l1.39,23.74s94.91-2.66,100.92-3.19c12-1,21.15,1.8,31-6.43,7.11-5.91,55.81-54.35,55.81-54.35l-.39-66.18Z" style="fill:#FF725E"></path><path d="M225.46,206.58S268,231.24,277.05,237s22.51,8.83,28.36,14.71c4.53,4.54,27.57,21.63,35.27,23.54s9.71-26.8,9.71-26.8-35.62-24.25-44.59-29.52-73.6-26.63-73.6-26.63Z" style="fill:#ffbe9d"></path><path d="M355.84,272.68c-.08,0-.58-1.21-1.55-3.13A42.47,42.47,0,0,0,344,256.47c-1.63-1.4-2.72-2.17-2.67-2.25a3.49,3.49,0,0,1,.82.46,25.14,25.14,0,0,1,2.09,1.5,36.51,36.51,0,0,1,10.43,13.21,25.11,25.11,0,0,1,1,2.38A3.14,3.14,0,0,1,355.84,272.68Z" style="fill:#eb996e"></path><path d="M346,245.42a1.54,1.54,0,0,1-.29-.16l-.81-.5-3.1-2-11.36-7.4-16.8-11-4.86-3.2-2.5-1.65-.64-.41-.67-.34-1.36-.68c-3.73-1.7-7.7-3.24-11.78-4.79-16.35-6.12-31.32-11.22-42.14-15l-12.81-4.4-3.48-1.22-.9-.32a1.38,1.38,0,0,1-.3-.13l.31.08.92.27,3.51,1.12L249.81,198c10.85,3.66,25.84,8.69,42.2,14.83,4.09,1.54,8.06,3.09,11.82,4.81l1.39.7.69.35.63.42,2.51,1.65,4.84,3.21,16.75,11.12,11.27,7.54,3,2.07.78.55A1.23,1.23,0,0,1,346,245.42Z" style="fill:#eb996e"></path><path d="M225.46,206.58a1.33,1.33,0,0,1,.32.15l.89.49,3.42,1.93,12.49,7.18,18.48,10.76c3.46,2.06,7.1,4.21,10.87,6.44l5.7,3.47a61,61,0,0,0,6.06,3.18c4.21,1.95,8.45,3.57,12.44,5.41a50.87,50.87,0,0,1,5.72,3c.45.29.9.56,1.32.87l1.26,1c.78.7,1.53,1.4,2.25,2.07,3,2.64,6.05,5,8.91,7.12s5.57,4.09,8.07,5.81a128.43,128.43,0,0,0,12.21,7.62,32.75,32.75,0,0,0,3.53,1.67l1,.34a1.34,1.34,0,0,1,.32.13l-.33-.08-1-.29a27.8,27.8,0,0,1-3.59-1.59,116.4,116.4,0,0,1-12.32-7.5c-2.53-1.7-5.25-3.64-8.13-5.76s-5.92-4.46-9-7.11c-2.77-3-6.48-5-10.45-6.82s-8.21-3.44-12.44-5.4a59,59,0,0,1-6.11-3.21l-5.7-3.47-10.84-6.46L242.4,216.65,230,209.32l-3.36-2-.87-.53Z" style="fill:#eb996e"></path><path d="M202.07,201.36s7.71,6.72,9.83,6.94,14.54-1.88,14.54-1.88L233.39,193s-11.85-9.41-14.59-10.87-19-6.43-19-6.43a1.41,1.41,0,0,0-.75,2.06s-5.42-3.44-7.13-.3a1.28,1.28,0,0,0-2.06.7,3.64,3.64,0,0,0,.13,3s-2.14,2-.67,3.94,12.5,9.62,12.5,9.62l4.93,5.11s-4.36-3.34-6.08-3.3-1.44,2.05-1.44,2.05Z" style="fill:#ffbe9d"></path><path d="M205.53,191.66a86.22,86.22,0,0,1-8-5,86.44,86.44,0,0,1-7.71-5.42,84.72,84.72,0,0,1,8,5A85.22,85.22,0,0,1,205.53,191.66Z" style="fill:#eb996e"></path><path d="M207.87,187.37a16.1,16.1,0,0,1-2.35-1.34L200,182.62c-2.16-1.35-4.12-2.57-5.51-3.49a13.62,13.62,0,0,1-2.2-1.58,14,14,0,0,1,2.39,1.27c1.45.83,3.43,2,5.59,3.35s4.11,2.6,5.48,3.55A12.2,12.2,0,0,1,207.87,187.37Z" style="fill:#eb996e"></path><path d="M211.48,183.89a4.85,4.85,0,0,1-.89-.44l-2.48-1.3c-2.14-1.09-5.22-2.61-8.93-4.34l-.11-.05,0-.12a5,5,0,0,1-.06-1.11,1.2,1.2,0,0,1,.74-1.11h0l.07,0,10,3.26,5.05,1.67c.82.27,1.62.52,2.4.81a15.64,15.64,0,0,1,2.14,1.25c2.62,1.79,4.88,3.52,6.77,5s3.41,2.66,4.44,3.5l1.19,1a2.82,2.82,0,0,1,.39.37,2.29,2.29,0,0,1-.46-.29l-1.24-.91L226,187.68c-1.92-1.41-4.2-3.11-6.82-4.86a16.8,16.8,0,0,0-2-1.19c-.76-.27-1.58-.52-2.39-.79l-5-1.66-10-3.3h.11c-.15,0-.33.38-.35.69a3.64,3.64,0,0,0,0,1l-.13-.17c3.7,1.78,6.76,3.35,8.87,4.52,1,.58,1.87,1.06,2.42,1.4A5.23,5.23,0,0,1,211.48,183.89Z" style="fill:#eb996e"></path><path d="M214.94,203.12a6.72,6.72,0,0,1-2.14-.32,17.42,17.42,0,0,1-4.81-2.06,17.61,17.61,0,0,1-4-3.39,6.37,6.37,0,0,1-1.23-1.78,23.62,23.62,0,0,0,12.17,7.55Z" style="fill:#eb996e"></path><path d="M501.55,407.23l1.32,31.65-.16,7.66c0,3.65,3,3,6.6,3l44.55.22s2.12-4.47-1.16-5.88-28.12-15.28-28.12-15.28l1.62-23.4Z" style="fill:#fafafa"></path><path d="M501.55,407.23a1.88,1.88,0,0,1,.41-.06l1.24-.12,4.85-.44,18.13-1.6.21,0v.21c-.45,6.64-1,14.59-1.57,23.41l-.12-.22,16.13,8.89c2.85,1.56,5.77,3.15,8.76,4.73l2.27,1.17c.39.19.75.34,1.16.56a3.06,3.06,0,0,1,.59.37,1.94,1.94,0,0,1,.49.5,3.67,3.67,0,0,1,.69,2.63,8.24,8.24,0,0,1-.68,2.62L554,450h-.17l-2.71,0-34.9-.19-7.83,0a17.92,17.92,0,0,1-3.8-.15,2.51,2.51,0,0,1-1.64-1.05,3.43,3.43,0,0,1-.48-1.84q.09-3.59.15-6.91c0-2.21-.13-4.35-.19-6.38-.29-8.1-.54-14.66-.7-19.23-.08-2.24-.14-4-.18-5.2,0-.57,0-1,0-1.34a2.33,2.33,0,0,1,0-.44s0,.17,0,.48,0,.79.07,1.37c.07,1.22.15,3,.27,5.24.21,4.55.52,11.09.9,19.16.07,2,.25,4.13.22,6.34s-.07,4.51-.11,6.9a2.9,2.9,0,0,0,.41,1.6,2.09,2.09,0,0,0,1.37.87,17.94,17.94,0,0,0,3.69.12h7.84l34.9.15,2.71,0-.23.14a7.58,7.58,0,0,0,.63-2.43,3.17,3.17,0,0,0-.57-2.27,5.5,5.5,0,0,0-2.07-1.29l-2.27-1.18c-3-1.58-5.92-3.18-8.77-4.74l-16.12-8.93-.12-.07v-.14c.63-8.82,1.2-16.77,1.67-23.4l.19.19-18,1.39-4.89.36-1.28.09Z" style="fill:#263238"></path><path d="M512.53,449.28c-.09,0-.17-.84-.6-2.14a12.19,12.19,0,0,0-2.64-4.53,12.41,12.41,0,0,0-4.32-3c-1.26-.51-2.11-.66-2.1-.75a5.17,5.17,0,0,1,2.23.39,11.08,11.08,0,0,1,7.21,7.76A4.94,4.94,0,0,1,512.53,449.28Z" style="fill:#263238"></path><path d="M540.71,449.68a3.38,3.38,0,0,1-.41-1.63,7.22,7.22,0,0,1,.83-4A9.88,9.88,0,0,1,543.8,441a4.35,4.35,0,0,1,1.44-.87c0,.07-.45.47-1.19,1.16a12.1,12.1,0,0,0-2.43,3,7.93,7.93,0,0,0-.93,3.71A9.2,9.2,0,0,1,540.71,449.68Z" style="fill:#263238"></path><path d="M446.29,316.41l.91,7.33S497,311,514.23,311c9.93,0,20.24,11.32,18.27,29.42-2.18,20-7.34,87-7.34,87L502.46,429s-5.8-39.29-6.24-54a92.51,92.51,0,0,1,1.23-19.75s-13,9.1-24.23,14c-9.11,4-34.65,18.18-55.67,16.92-20-1.19-31.18-15.77-29.06-32.22,2.39-18.58,11.88-25.9,11.88-25.9l22.9-8.45Z" style="fill:#FF725E"></path><path d="M423.66,385.68a4,4,0,0,1-.75.15,18.26,18.26,0,0,1-2.17.27,28.69,28.69,0,0,1-8-.51A32.79,32.79,0,0,1,407.4,384a33.32,33.32,0,0,1-5.67-2.93,29,29,0,0,1-13.62-24.6,33.78,33.78,0,0,1,.52-6.36,32.71,32.71,0,0,1,1.51-5.35,28.37,28.37,0,0,1,3.81-7.06,18.77,18.77,0,0,1,1.38-1.69,4.77,4.77,0,0,1,.52-.56,4.5,4.5,0,0,1-.44.62c-.28.41-.79,1-1.29,1.75a30.07,30.07,0,0,0-3.64,7.06,31.54,31.54,0,0,0-1.89,11.58A28.85,28.85,0,0,0,402,380.69a34,34,0,0,0,5.57,2.93,34.4,34.4,0,0,0,5.25,1.61,30.58,30.58,0,0,0,7.92.67c.94,0,1.67-.15,2.16-.18A4.44,4.44,0,0,1,423.66,385.68Z" style="fill:#263238"></path><path d="M454,321.79c0,.14-4.75,1.62-10.7,3.32s-10.8,2.95-10.84,2.81,4.75-1.62,10.7-3.31S454,321.65,454,321.79Z" style="fill:#263238"></path><path d="M506.53,339c.06.06-.77,1-2,2.49a45.63,45.63,0,0,0-4.24,6.35,46.39,46.39,0,0,0-3.09,7,29.79,29.79,0,0,1-1.05,3,3,3,0,0,1,.12-.85c.1-.54.29-1.32.57-2.27a37,37,0,0,1,7.4-13.43,20.59,20.59,0,0,1,1.61-1.7C506.27,339.22,506.5,339,506.53,339Z" style="fill:#263238"></path></g></svg>